<?xml version="1.0" encoding="UTF-8" standalone="no"?>
<svg xmlns:dc="http://purl.org/dc/elements/1.1/" xmlns:cc="http://creativecommons.org/ns#" xmlns:rdf="http://www.w3.org/1999/02/22-rdf-syntax-ns#" xmlns:svg="http://www.w3.org/2000/svg" xmlns="http://www.w3.org/2000/svg" xmlns:sodipodi="http://sodipodi.sourceforge.net/DTD/sodipodi-0.dtd" xmlns:inkscape="http://www.inkscape.org/namespaces/inkscape" width="32" height="32" viewBox="0 0 32 32.000001" id="svg2" version="1.1" inkscape:version="0.91 r13725" sodipodi:docname="book-read-study-library-knowledge-school-education-3.svg">
  <defs id="defs4"/>
  <sodipodi:namedview id="base" pagecolor="#ffffff" bordercolor="#666666" borderopacity="1.0" inkscape:pageopacity="0.0" inkscape:pageshadow="2" inkscape:zoom="7.919596" inkscape:cx="7.2812059" inkscape:cy="9.8726345" inkscape:document-units="px" inkscape:current-layer="layer1" showgrid="false" units="px" inkscape:window-width="1366" inkscape:window-height="716" inkscape:window-x="-8" inkscape:window-y="-8" inkscape:window-maximized="1"/>
  
  <g inkscape:label="Layer 1" inkscape:groupmode="layer" id="layer1" transform="translate(0,-1020.3622)">
    <path style="fill:#3b3c3d;fill-rule:evenodd;stroke:none;stroke-width:1;stroke-linecap:round;stroke-linejoin:round;stroke-miterlimit:4;stroke-dasharray:none;stroke-opacity:1" d="m 10.1387,1024.8629 c -2.3403,0.026 -4.6007,0.7205 -7.334,1.8699 -0.1682,0.071 -0.3047,0.2768 -0.3047,0.4587 l 0,17.1631 c 0,0.4251 0.3131,0.6233 0.7031,0.4509 4.3254,-2.1605 7.804,-2.3468 12.2988,-0.6129 l 0,-11.5006 0,-4.7392 0,-2.0163 c -1.9594,-0.7433 -3.6881,-1.0922 -5.3632,-1.0736 z m 2.082,5.3385 a 0.50065214,0.50033942 0 1 1 0.051,0.9993 l -6.4883,0.3319 a 0.50064983,0.50033711 0 0 1 -0.051,-0.9994 z m 0,3.9975 a 0.50064983,0.50033711 0 1 1 0.051,0.9993 l -6.4883,0.3319 a 0.50064983,0.50033711 0 0 1 -0.051,-0.9994 z m 0,3.9975 a 0.50064983,0.50033711 0 1 1 0.051,0.9993 l -6.4883,0.3319 a 0.50065214,0.50033942 0 0 1 -0.051,-0.9994 z" id="path14537" inkscape:connector-curvature="0"/>
    <path style="fill:#3b3c3d;fill-rule:evenodd;stroke:none;stroke-width:1;stroke-linecap:round;stroke-linejoin:round;stroke-miterlimit:4;stroke-dasharray:none;stroke-opacity:1" d="m 22.8008,1024.9468 c -1.9569,-0.1012 -3.9787,0.2742 -6.2989,1.015 l 0,1.991 0,4.7392 0,11.4967 c 4.5334,-1.7868 7.7147,-1.4076 12.2891,0.6129 0.3933,0.1747 0.709,-0.026 0.709,-0.4548 l 0,-4.2024 0,-3.4881 0,-9.252 c 0,-0.1625 -0.1151,-0.3585 -0.2578,-0.4372 -2.302,-1.2718 -4.3418,-1.9116 -6.4414,-2.0203 z m -3.0664,5.2546 a 0.50005,0.49973766 0 0 1 0.051,0 l 6.4844,0.3318 a 0.50070176,0.50038901 0 0 1 -0.053,0.9994 l -6.4824,-0.3319 a 0.50005,0.49973766 0 0 1 0,-0.9993 z m 0,3.9975 a 0.50005,0.49973766 0 0 1 0.051,0 l 6.4844,0.3318 a 0.50070176,0.50038901 0 0 1 -0.053,0.9994 l -6.4824,-0.3319 a 0.50005,0.49973766 0 0 1 0,-0.9993 z m 0,3.9975 a 0.50005,0.49973766 0 0 1 0.051,0 l 6.4844,0.3318 a 0.50070407,0.50039132 0 0 1 -0.053,0.9994 l -6.4824,-0.3319 a 0.50005,0.49973766 0 0 1 0,-0.9993 z" id="path32746" inkscape:connector-curvature="0"/>
    <path inkscape:connector-curvature="0" id="path32760" d="m 1.625,1028.2026 -0.4766,0.1796 c -0.3903,0.1463 -0.6484,0.5184 -0.6484,0.935 l 0,17.5456 c 0,0.552 0.4477,0.9994 1,0.9994 l 29,0 c 0.5523,0 1,-0.4474 1,-0.9994 l 0,-17.5456 c 0,-0.4166 -0.2582,-0.7887 -0.6485,-0.935 l -0.4765,-0.1796 0,8.4576 0,3.4861 0,4.2044 c 0,0.4287 -0.1914,0.9234 -0.6113,1.1907 -0.4196,0.2673 -0.9379,0.2323 -1.3262,0.06 -4.6441,-2.0513 -7.4456,-2.3732 -12.0957,-0.4177 a 0.8750875,0.8745409 0 0 1 -0.6719,0 c -4.5903,-1.8859 -7.7416,-1.7631 -12.0762,0.4021 a 0.8750875,0.8745409 0 0 1 -0.037,0.02 c -0.3872,0.1716 -0.9039,0.2022 -1.3222,-0.064 -0.4183,-0.2668 -0.6094,-0.7598 -0.6094,-1.1868 z" style="fill:#3b3c3d;fill-rule:evenodd;stroke:none;stroke-width:1;stroke-linecap:round;stroke-linejoin:round;stroke-miterlimit:4;stroke-dasharray:none;stroke-opacity:1"/>
  </g>

	<metadata>
		<rdf:RDF xmlns:rdf="http://www.w3.org/1999/02/22-rdf-syntax-ns#" xmlns:rdfs="http://www.w3.org/2000/01/rdf-schema#" xmlns:dc="http://purl.org/dc/elements/1.1/">
			<rdf:Description about="https://iconscout.com/legal#licenses" dc:title="book-read-study-library-knowledge-school-education-3" dc:description="book-read-study-library-knowledge-school-education-3" dc:publisher="Iconscout" dc:date="2017-04-26" dc:format="image/svg+xml" dc:language="en">
				<dc:creator>
					<rdf:Bag>
						<rdf:li>Vignesh Oviyan</rdf:li>
					</rdf:Bag>
				</dc:creator>
			</rdf:Description>
		</rdf:RDF>
    </metadata></svg>
