<svg xmlns="http://www.w3.org/2000/svg" enable-background="new 0 0 512 512" version="1" viewBox="0 0 512 512"><rect width="512" height="512" fill="#FFDCDC" display="none"/><path fill="#646464" d="M222.074 193.953c-34.931-18.686-71.282-18.073-72.812-18.073-3.313.073-5.938 2.818-5.868 6.132.076 3.311 2.76 5.851 6.132 5.868.369-.05 34.717-.553 66.888 16.655.902.48 1.869.709 2.824.709 2.142 0 4.216-1.148 5.297-3.17C226.097 199.154 224.995 195.518 222.074 193.953zM222.074 244.684c-34.931-18.686-71.282-18.059-72.812-18.073-3.313.073-5.938 2.818-5.868 6.132.076 3.31 2.76 5.877 6.132 5.868.369-.032 34.717-.551 66.888 16.655.902.481 1.869.709 2.824.709 2.142 0 4.216-1.148 5.297-3.17C226.097 249.884 224.995 246.249 222.074 244.684zM222.074 295.415c-34.931-18.686-71.282-18.062-72.812-18.074-3.313.074-5.938 2.819-5.868 6.132.076 3.31 2.76 5.903 6.132 5.868.369-.038 34.717-.551 66.888 16.655.902.481 1.869.709 2.824.709 2.142 0 4.216-1.148 5.297-3.17C226.097 300.615 224.995 296.979 222.074 295.415z"/><path fill="#646464" d="M408.414,147.313V96.386l-8.821-0.176c-90.167-1.805-128.751,25.125-143.578,40.96
			c-14.335-15.328-50.921-41.048-135.065-41.048c-2.792,0-5.642,0.029-8.537,0.088l-8.821,0.176v50.927H62.43v268.565h155.01
			c4.972,0,9-4.028,9-9c0-4.972-4.028-9-9-9H80.43V165.313h23.162v195.164l9.179-0.185c111.489-2.256,134.924,41.388,135.091,41.71
			c1.535,3.258,4.769,5.165,8.144,5.165c1.286,0,2.593-0.278,3.832-0.864c1.389-0.653,2.493-1.637,3.349-2.789
			c0.114-0.147,0.225-0.293,0.328-0.448c0.129-0.196,0.249-0.395,0.363-0.6c0.065-0.117,0.144-0.223,0.205-0.343
			c0.22-0.431,22.535-41.912,126.987-41.912c2.663,0,5.396,0.029,8.165,0.082l9.178,0.185V165.313h23.156v232.564h-137.01
			c-4.972,0-9,4.028-9,9c0,4.972,4.028,9,9,9h155.01V147.313H408.414z M121.592,342.21V114.123
			C214.334,114.278,241.984,147.21,247,154.57v220.435C228.391,360.204,191.474,342.319,121.592,342.21z M390.414,342.21
			c-69.879,0.111-106.802,18-125.414,32.801V154.57c5.004-7.351,32.634-40.295,125.414-40.447V342.21z"/><path fill="#646464" d="M362.743 175.88c-1.526-.003-37.884-.606-72.818 18.073-2.921 1.562-4.022 5.197-2.461 8.121 1.081 2.021 3.152 3.17 5.297 3.17.955 0 1.922-.229 2.824-.709 30.17-16.134 62.487-16.658 66.489-16.658.744 0 .472.003.533.003 3.255 0 5.929-2.604 6-5.874C368.676 178.696 366.054 175.953 362.743 175.88zM362.743 226.611c-1.526-.003-37.884-.607-72.818 18.073-2.921 1.561-4.022 5.197-2.461 8.121 1.081 2.022 3.152 3.17 5.297 3.17.955 0 1.922-.229 2.824-.709 32.048-17.138 66.536-16.705 66.899-16.655 3.176.041 6.05-2.563 6.123-5.874C368.676 229.426 366.054 226.684 362.743 226.611zM362.743 277.341c-1.526-.003-37.884-.606-72.818 18.074-2.921 1.561-4.022 5.197-2.461 8.121 1.081 2.021 3.152 3.17 5.297 3.17.955 0 1.922-.228 2.824-.709 30.17-16.134 62.487-16.658 66.489-16.658.744-.003.472.003.533.003 3.255 0 5.929-2.604 6-5.874C368.676 280.157 366.054 277.415 362.743 277.341z"/></svg>