<?xml version="1.0" encoding="iso-8859-1" ?>
              <svg
                version="1.1"
                xmlns="http://www.w3.org/2000/svg"
                xmlns:xlink="http://www.w3.org/1999/xlink"
                viewBox="0 0 952.5 635"
                width="952.5"
                height="635"
              >
                <g transform="translate(295.45 147.75) scale(0.889 0.889) rotate(0 200.00000000000003 178.57142857142858)"><g clip-path="url(#clipPath_y8yDDzJFOoEAGedyrJjbl)"><defs>
          <clipPath id="clipPath_y8yDDzJFOoEAGedyrJjbl">
            <rect x="0" y="0" width="400" height="357" />
          </clipPath>
       </defs> <g>  <polygon fill="rgb(236,168,168)" points="382.389,222.748 384.906,201.527 384.389,201.363 374.091,220.083  "/>     <rect x="292.276" y="279.341" transform="matrix(0.3055 -0.9522 0.9522 0.3055 -21.3289 538.1597)" fill="#428DFC" width="131.924" height="8.718"/>  <polygon fill="#151A4F" points="379.575,210.113 383.73,211.446 384.906,201.527 384.389,201.363  "/> </g> <rect y="158.425" fill="#E94A47" width="400" height="10.93"/> <rect x="20.429" y="123.119" fill="#23286B" width="147.884" height="35.001"/> <rect x="11.321" y="99.435" fill="#428DFC" width="147.884" height="24.071"/> <rect x="30.589" y="130.458" fill="rgb(212,145,146)" width="138.853" height="20.323"/> <rect x="30.589" y="145.827" fill="rgb(236,168,168)" width="138.853" height="2.562"/> <rect x="30.589" y="140.704" fill="rgb(236,168,168)" width="138.853" height="2.562"/> <rect x="30.589" y="135.58" fill="rgb(236,168,168)" width="138.853" height="2.562"/> <rect x="30.589" y="130.458" fill="rgb(236,168,168)" width="138.853" height="2.562"/> <rect x="12.231" y="63.914" fill="#D62929" width="174.458" height="35.001"/> <polygon fill="#1D72D8" points="248.71,149.465 222.68,159.059 167.605,9.594 193.635,0 "/> <polygon fill="#428DFC" points="278.079,149.466 252.05,159.06 196.975,9.595 223.005,0.001 "/> <polygon fill="#78A9EF" points="325.345,146.303 300.704,159.043 227.57,17.547 252.211,4.806 "/> <rect x="23.7" y="208.728" fill="#A1C3FC" width="29.746" height="137.598"/> <circle fill="rgb(253,185,185)" cx="145.662" cy="82.424" r="9.832"/> <rect x="269.607" y="91.832" transform="matrix(0.8883 -0.4593 0.4593 0.8883 -12.1974 140.8609)" fill="rgb(212,145,146)" width="27.74" height="7.347"/> <rect x="143.734" y="213.294" transform="matrix(0.9652 -0.2616 0.2616 0.9652 -67.8201 50.3901)" fill="#78A9EF" width="23.2" height="133.211"/> <rect x="147.078" y="289.164" transform="matrix(0.9652 -0.2616 0.2616 0.9652 -70.9315 51.6946)" fill="rgb(212,145,146)" width="23.2" height="6.145"/> <rect x="23.7" y="296.125" fill="#428DFC" width="29.746" height="9.002"/> <rect x="23.7" y="313.738" fill="#428DFC" width="29.746" height="9.002"/> <rect x="59.9" y="208.728" fill="#A1C3FC" width="29.746" height="137.598"/> <rect x="59.9" y="296.125" fill="#428DFC" width="29.746" height="9.002"/> <rect x="59.9" y="313.738" fill="#428DFC" width="29.746" height="9.002"/> <rect x="96.103" y="208.728" fill="#A1C3FC" width="29.746" height="137.598"/> <rect x="96.103" y="296.125" fill="#428DFC" width="29.746" height="9.002"/> <rect x="96.103" y="313.738" fill="#428DFC" width="29.746" height="9.002"/> <rect y="346.07" fill="#E94A47" width="400" height="10.93"/> <rect x="302.405" y="270.796" fill="#151A4F" width="70.042" height="74.372"/> <rect x="327.349" y="297.684" transform="matrix(0.9704 0.2415 -0.2415 0.9704 82.2353 -70.7542)" fill="#89B3F4" width="4.732" height="4.733"/> <rect x="316.471" y="300.914" transform="matrix(0.9307 -0.3658 0.3658 0.9307 -89.82 139.0927)" fill="#A1C3FC" width="11.265" height="11.267"/> <rect x="355.391" y="320.63" transform="matrix(0.7641 0.6451 -0.6451 0.7641 295.6079 -155.9267)" fill="#E94A47" width="11.266" height="11.266"/> <rect x="308.855" y="310.806" transform="matrix(0.9478 -0.3189 0.3189 0.9478 -84.1911 116.3863)" fill="#E94A47" width="9.079" height="9.08"/> <rect x="327.073" y="275.59" transform="matrix(0.7641 0.6451 -0.6451 0.7641 262.5841 -149.541)" fill="#1D72D8" width="17.415" height="17.416"/> <polygon fill="#A1C3FC" points="354.351,344.789 350.394,334.722 339.91,338.843 342.247,344.789 "/> </g></g>
              </svg>